{
    "asset": {
        "version": "2.0",
        "generator": "Blockbench 4.12.4 glTF exporter"
    },
    "scenes": [{ "nodes": [1], "name": "blockbench_export" }],
    "scene": 0,
    "nodes": [{ "name": "sphere", "mesh": 0 }, { "children": [0] }],
    "bufferViews": [
        {
            "buffer": 0,
            "byteOffset": 0,
            "byteLength": 1824,
            "target": 34962,
            "byteStride": 12
        },
        {
            "buffer": 0,
            "byteOffset": 1824,
            "byteLength": 1824,
            "target": 34962,
            "byteStride": 12
        },
        {
            "buffer": 0,
            "byteOffset": 3648,
            "byteLength": 1216,
            "target": 34962,
            "byteStride": 8
        },
        { "buffer": 0, "byteOffset": 4864, "byteLength": 420, "target": 34963 }
    ],
    "buffers": [
        {
            "byteLength": 5284,
            "uri": "data:application/octet-stream;base64,"
        }
    ],
    "accessors": [
        {
            "bufferView": 0,
            "componentType": 5126,
            "count": 152,
            "max": [0.59375, 0.59375, 0.59375],
            "min": [-0.59375, 3.635670219535125e-17, -0.59375],
            "type": "VEC3"
        },
        {
            "bufferView": 1,
            "componentType": 5126,
            "count": 152,
            "max": [0.9659258127212524, 0.9659258127212524, 0.9659258127212524],
            "min": [-0.9659258127212524, -1, -0.9659258127212524],
            "type": "VEC3"
        },
        {
            "bufferView": 2,
            "componentType": 5126,
            "count": 152,
            "max": [0.7123090028762817, 0.6135637164115906],
            "min": [0, 0],
            "type": "VEC2"
        },
        {
            "bufferView": 3,
            "componentType": 5123,
            "count": 210,
            "max": [151],
            "min": [0],
            "type": "SCALAR"
        }
    ],
    "materials": [
        {
            "pbrMetallicRoughness": {
                "metallicFactor": 0,
                "roughnessFactor": 1,
                "baseColorTexture": { "index": 0 }
            },
            "alphaMode": "MASK",
            "alphaCutoff": 0.05,
            "doubleSided": true
        }
    ],
    "textures": [{ "sampler": 0, "source": 0, "name": "texture" }],
    "samplers": [
        { "magFilter": 9728, "minFilter": 9728, "wrapS": 33071, "wrapT": 33071 }
    ],
    "images": [
        {
            "mimeType": "image/png",
            "uri": "data:image/png;base64,"
        }
    ],
    "meshes": [
        {
            "primitives": [
                {
                    "mode": 4,
                    "attributes": {
                        "POSITION": 0,
                        "NORMAL": 1,
                        "TEXCOORD_0": 2
                    },
                    "indices": 3,
                    "material": 0
                }
            ]
        }
    ]
}
