{
    "asset": {
        "version": "2.0",
        "generator": "Blockbench 4.12.4 glTF exporter"
    },
    "scenes": [{ "nodes": [4], "name": "blockbench_export" }],
    "scene": 0,
    "nodes": [
        {
            "rotation": [0.7071067811865475, 0, 0, 0.7071067811865476],
            "translation": [0, 0, -0.4375],
            "name": "cylinder",
            "mesh": 0
        },
        {
            "rotation": [0.7071067811865475, 0, 0, 0.7071067811865476],
            "translation": [0, 0, -0.75],
            "name": "cylinder",
            "mesh": 1
        },
        {
            "rotation": [0, 0.13052619222005157, 0, 0.9914448613738104],
            "translation": [0, 0, -0.75],
            "name": "sphere",
            "mesh": 2
        },
        {
            "rotation": [0.7071067811865475, 0, 0, 0.7071067811865476],
            "translation": [0, 0, -1.0625],
            "name": "cylinder",
            "mesh": 3
        },
        { "children": [0, 1, 2, 3] }
    ],
    "bufferViews": [
        {
            "buffer": 0,
            "byteOffset": 0,
            "byteLength": 1440,
            "target": 34962,
            "byteStride": 12
        },
        {
            "buffer": 0,
            "byteOffset": 1440,
            "byteLength": 1440,
            "target": 34962,
            "byteStride": 12
        },
        {
            "buffer": 0,
            "byteOffset": 2880,
            "byteLength": 960,
            "target": 34962,
            "byteStride": 8
        },
        { "buffer": 0, "byteOffset": 3840, "byteLength": 288, "target": 34963 },
        {
            "buffer": 0,
            "byteOffset": 4128,
            "byteLength": 1440,
            "target": 34962,
            "byteStride": 12
        },
        {
            "buffer": 0,
            "byteOffset": 5568,
            "byteLength": 1440,
            "target": 34962,
            "byteStride": 12
        },
        {
            "buffer": 0,
            "byteOffset": 7008,
            "byteLength": 960,
            "target": 34962,
            "byteStride": 8
        },
        { "buffer": 0, "byteOffset": 7968, "byteLength": 288, "target": 34963 },
        {
            "buffer": 0,
            "byteOffset": 8256,
            "byteLength": 2400,
            "target": 34962,
            "byteStride": 12
        },
        {
            "buffer": 0,
            "byteOffset": 10656,
            "byteLength": 2400,
            "target": 34962,
            "byteStride": 12
        },
        {
            "buffer": 0,
            "byteOffset": 13056,
            "byteLength": 1600,
            "target": 34962,
            "byteStride": 8
        },
        {
            "buffer": 0,
            "byteOffset": 14656,
            "byteLength": 564,
            "target": 34963
        },
        {
            "buffer": 0,
            "byteOffset": 15220,
            "byteLength": 1440,
            "target": 34962,
            "byteStride": 12
        },
        {
            "buffer": 0,
            "byteOffset": 16660,
            "byteLength": 1440,
            "target": 34962,
            "byteStride": 12
        },
        {
            "buffer": 0,
            "byteOffset": 18100,
            "byteLength": 960,
            "target": 34962,
            "byteStride": 8
        },
        { "buffer": 0, "byteOffset": 19060, "byteLength": 288, "target": 34963 }
    ],
    "buffers": [
        {
            "byteLength": 19348,
            "uri": "data:application/octet-stream;base64,"
        }
    ],
    "accessors": [
        {
            "bufferView": 0,
            "componentType": 5126,
            "count": 120,
            "max": [0.53125, 0.46875, 0.53125],
            "min": [-0.53125, 0.125, -0.53125],
            "type": "VEC3"
        },
        {
            "bufferView": 1,
            "componentType": 5126,
            "count": 120,
            "max": [1, 1, 1],
            "min": [-1, -1, -1],
            "type": "VEC3"
        },
        {
            "bufferView": 2,
            "componentType": 5126,
            "count": 120,
            "max": [0.8880125284194946, 0.7578125],
            "min": [0, 0],
            "type": "VEC2"
        },
        {
            "bufferView": 3,
            "componentType": 5123,
            "count": 144,
            "max": [119],
            "min": [0],
            "type": "SCALAR"
        },
        {
            "bufferView": 4,
            "componentType": 5126,
            "count": 120,
            "max": [0.34375, 0.46875, 0.34375],
            "min": [-0.34375, 0.125, -0.34375],
            "type": "VEC3"
        },
        {
            "bufferView": 5,
            "componentType": 5126,
            "count": 120,
            "max": [1, 1, 1],
            "min": [-1, -1, -1],
            "type": "VEC3"
        },
        {
            "bufferView": 6,
            "componentType": 5126,
            "count": 120,
            "max": [0.8737671971321106, 0.8828125],
            "min": [0, 0.140625],
            "type": "VEC2"
        },
        {
            "bufferView": 7,
            "componentType": 5123,
            "count": 144,
            "max": [119],
            "min": [0],
            "type": "SCALAR"
        },
        {
            "bufferView": 8,
            "componentType": 5126,
            "count": 200,
            "max": [0.375, 0.375, 0.16085131466388702],
            "min": [-0.3911761939525604, -0.375, -0.375],
            "type": "VEC3"
        },
        {
            "bufferView": 9,
            "componentType": 5126,
            "count": 200,
            "max": [0.9659258127212524, 0.968100368976593, 0.9659258127212524],
            "min": [
                -0.9307771325111389, -0.968100368976593, -0.9659258127212524
            ],
            "type": "VEC3"
        },
        {
            "bufferView": 10,
            "componentType": 5126,
            "count": 200,
            "max": [0.7001789808273315, 0.890625],
            "min": [0.0013404290657490492, 0],
            "type": "VEC2"
        },
        {
            "bufferView": 11,
            "componentType": 5123,
            "count": 282,
            "max": [199],
            "min": [0],
            "type": "SCALAR"
        },
        {
            "bufferView": 12,
            "componentType": 5126,
            "count": 120,
            "max": [0.40625, 0.46875, 0.40625],
            "min": [-0.40625, 0.125, -0.40625],
            "type": "VEC3"
        },
        {
            "bufferView": 13,
            "componentType": 5126,
            "count": 120,
            "max": [1, 1, 1],
            "min": [-1, -1, -1],
            "type": "VEC3"
        },
        {
            "bufferView": 14,
            "componentType": 5126,
            "count": 120,
            "max": [0.886329710483551, 0.7734375],
            "min": [0, 0],
            "type": "VEC2"
        },
        {
            "bufferView": 15,
            "componentType": 5123,
            "count": 144,
            "max": [119],
            "min": [0],
            "type": "SCALAR"
        }
    ],
    "materials": [
        {
            "pbrMetallicRoughness": {
                "metallicFactor": 0,
                "roughnessFactor": 1,
                "baseColorTexture": { "index": 0 }
            },
            "alphaMode": "MASK",
            "alphaCutoff": 0.05,
            "doubleSided": true
        }
    ],
    "textures": [{ "sampler": 0, "source": 0, "name": "texture" }],
    "samplers": [
        { "magFilter": 9728, "minFilter": 9728, "wrapS": 33071, "wrapT": 33071 }
    ],
    "images": [
        {
            "mimeType": "image/png",
            "uri": "data:image/png;base64,"
        }
    ],
    "meshes": [
        {
            "primitives": [
                {
                    "mode": 4,
                    "attributes": {
                        "POSITION": 0,
                        "NORMAL": 1,
                        "TEXCOORD_0": 2
                    },
                    "indices": 3,
                    "material": 0
                }
            ]
        },
        {
            "primitives": [
                {
                    "mode": 4,
                    "attributes": {
                        "POSITION": 4,
                        "NORMAL": 5,
                        "TEXCOORD_0": 6
                    },
                    "indices": 7,
                    "material": 0
                }
            ]
        },
        {
            "primitives": [
                {
                    "mode": 4,
                    "attributes": {
                        "POSITION": 8,
                        "NORMAL": 9,
                        "TEXCOORD_0": 10
                    },
                    "indices": 11,
                    "material": 0
                }
            ]
        },
        {
            "primitives": [
                {
                    "mode": 4,
                    "attributes": {
                        "POSITION": 12,
                        "NORMAL": 13,
                        "TEXCOORD_0": 14
                    },
                    "indices": 15,
                    "material": 0
                }
            ]
        }
    ]
}
