{
    "asset": {
        "version": "2.0",
        "generator": "Blockbench 4.12.4 glTF exporter"
    },
    "scenes": [{ "nodes": [2], "name": "blockbench_export" }],
    "scene": 0,
    "nodes": [
        {
            "rotation": [0.7071067811865475, 0, 0, 0.7071067811865476],
            "translation": [0, 0, -0.25],
            "name": "cylinder",
            "mesh": 0
        },
        {
            "rotation": [0, 0.13052619222005157, 0, 0.9914448613738104],
            "name": "sphere",
            "mesh": 1
        },
        { "children": [0, 1] }
    ],
    "bufferViews": [
        {
            "buffer": 0,
            "byteOffset": 0,
            "byteLength": 1440,
            "target": 34962,
            "byteStride": 12
        },
        {
            "buffer": 0,
            "byteOffset": 1440,
            "byteLength": 1440,
            "target": 34962,
            "byteStride": 12
        },
        {
            "buffer": 0,
            "byteOffset": 2880,
            "byteLength": 960,
            "target": 34962,
            "byteStride": 8
        },
        { "buffer": 0, "byteOffset": 3840, "byteLength": 288, "target": 34963 },
        {
            "buffer": 0,
            "byteOffset": 4128,
            "byteLength": 1584,
            "target": 34962,
            "byteStride": 12
        },
        {
            "buffer": 0,
            "byteOffset": 5712,
            "byteLength": 1584,
            "target": 34962,
            "byteStride": 12
        },
        {
            "buffer": 0,
            "byteOffset": 7296,
            "byteLength": 1056,
            "target": 34962,
            "byteStride": 8
        },
        { "buffer": 0, "byteOffset": 8352, "byteLength": 360, "target": 34963 }
    ],
    "buffers": [
        {
            "byteLength": 8712,
            "uri": "data:application/octet-stream;base64,"
        }
    ],
    "accessors": [
        {
            "bufferView": 0,
            "componentType": 5126,
            "count": 120,
            "max": [0.5625, 0.40625, 0.375],
            "min": [-0.5625, 0.1875, -0.375],
            "type": "VEC3"
        },
        {
            "bufferView": 1,
            "componentType": 5126,
            "count": 120,
            "max": [1, 1, 1],
            "min": [-1, -1, -1],
            "type": "VEC3"
        },
        {
            "bufferView": 2,
            "componentType": 5126,
            "count": 120,
            "max": [0.5, 0.5],
            "min": [0, 0],
            "type": "VEC2"
        },
        {
            "bufferView": 3,
            "componentType": 5123,
            "count": 144,
            "max": [119],
            "min": [0],
            "type": "SCALAR"
        },
        {
            "bufferView": 4,
            "componentType": 5126,
            "count": 132,
            "max": [0.25, 0.25, 0.0669872984290123],
            "min": [-0.25, -0.25, -0.25],
            "type": "VEC3"
        },
        {
            "bufferView": 5,
            "componentType": 5126,
            "count": 132,
            "max": [0.9659258127212524, 0.9659258127212524, 0],
            "min": [
                -0.8365163207054138, -0.9659258127212524, -0.9659258127212524
            ],
            "type": "VEC3"
        },
        {
            "bufferView": 6,
            "componentType": 5126,
            "count": 132,
            "max": [0.5110177993774414, 0.515625],
            "min": [0.0011218750150874257, 0],
            "type": "VEC2"
        },
        {
            "bufferView": 7,
            "componentType": 5123,
            "count": 180,
            "max": [131],
            "min": [0],
            "type": "SCALAR"
        }
    ],
    "materials": [
        {
            "pbrMetallicRoughness": {
                "metallicFactor": 0,
                "roughnessFactor": 1,
                "baseColorTexture": { "index": 0 }
            },
            "alphaMode": "MASK",
            "alphaCutoff": 0.05,
            "doubleSided": true
        }
    ],
    "textures": [{ "sampler": 0, "source": 0, "name": "texture" }],
    "samplers": [
        { "magFilter": 9728, "minFilter": 9728, "wrapS": 33071, "wrapT": 33071 }
    ],
    "images": [
        {
            "mimeType": "image/png",
            "uri": "data:image/png;base64,"
        }
    ],
    "meshes": [
        {
            "primitives": [
                {
                    "mode": 4,
                    "attributes": {
                        "POSITION": 0,
                        "NORMAL": 1,
                        "TEXCOORD_0": 2
                    },
                    "indices": 3,
                    "material": 0
                }
            ]
        },
        {
            "primitives": [
                {
                    "mode": 4,
                    "attributes": {
                        "POSITION": 4,
                        "NORMAL": 5,
                        "TEXCOORD_0": 6
                    },
                    "indices": 7,
                    "material": 0
                }
            ]
        }
    ]
}
